<svg width="36" height="36" viewBox="0 0 36 36" fill="none" xmlns="http://www.w3.org/2000/svg">
<path fill-rule="evenodd" clip-rule="evenodd" d="M18 36C27.9411 36 36 27.9411 36 18C36 8.05887 27.9411 0 18 0C8.05887 0 0 8.05887 0 18C0 27.9411 8.05887 36 18 36ZM7.3226 10.7664C8.92728 8.4236 11.2409 6.65712 13.9237 5.72643C16.8249 4.73122 19.9792 4.75935 22.8622 5.80614C24.4452 6.39497 25.8966 7.29031 27.1331 8.44087C26.9005 8.69351 26.654 8.9362 26.4081 9.17827C26.2171 9.36632 26.0265 9.55399 25.843 9.74567C25.0305 10.561 24.2166 11.3742 23.4013 12.1853C22.5913 11.4106 21.6115 10.8359 20.54 10.5071C19.1684 10.0946 17.7097 10.0678 16.3239 10.4297C14.9381 10.7916 13.6787 11.5282 12.684 12.5587C11.8148 13.443 11.1565 14.5121 10.7583 15.6864C10.1896 17.3617 10.1896 19.1778 10.7583 20.8531C11.3177 22.4976 12.3822 23.9233 13.8 24.9269C14.6824 25.5557 15.6862 25.9937 16.7473 26.2128C17.7942 26.4075 18.868 26.4075 19.9149 26.2128C20.9587 26.0363 21.9541 25.6433 22.837 25.0591C23.5323 24.5902 24.1259 23.9859 24.5822 23.2823C25.0385 22.5788 25.3482 21.7903 25.4927 20.9643H18.2618V15.785H30.7475C31.1744 18.128 31.0588 20.5377 30.4098 22.8292C29.8124 24.9363 28.652 26.8407 27.0534 28.3378C25.5174 29.7336 23.6453 30.7065 21.6203 31.1613C19.385 31.6868 17.0555 31.6616 14.8321 31.0879C12.0895 30.3515 9.65543 28.7551 7.8873 26.5331C6.11914 24.311 5.11014 21.5806 5.00851 18.7427C4.90686 15.9049 5.71796 13.1092 7.3226 10.7664Z" fill="#16273F"/>
</svg>
