<svg width="36" height="36" viewBox="0 0 36 36" fill="none" xmlns="http://www.w3.org/2000/svg">
<path fill-rule="evenodd" clip-rule="evenodd" d="M18 36C27.9411 36 36 27.9411 36 18C36 8.05887 27.9411 0 18 0C8.05887 0 0 8.05887 0 18C0 27.9411 8.05887 36 18 36ZM9.60218 11.472C10.9394 9.51967 12.8674 8.0476 15.1031 7.27202C17.5207 6.44268 20.1494 6.46613 22.5518 7.33845C23.871 7.82915 25.0805 8.57526 26.1109 9.53407C25.9171 9.74458 25.7117 9.94679 25.5068 10.1485C25.3476 10.3052 25.1887 10.4616 25.0359 10.6214C24.3588 11.3008 23.6805 11.9785 23.0011 12.6544C22.3261 12.0088 21.5096 11.5299 20.6166 11.2559C19.4737 10.9121 18.2581 10.8898 17.1032 11.1914C15.9484 11.493 14.8989 12.1068 14.07 12.9656C13.3456 13.7025 12.7971 14.5935 12.4652 15.572C11.9913 16.9681 11.9913 18.4815 12.4652 19.8776C12.9314 21.248 13.8185 22.4361 15 23.2724C15.7353 23.7964 16.5718 24.1614 17.4561 24.344C18.3285 24.5063 19.2233 24.5063 20.0957 24.344C20.9656 24.197 21.7951 23.8694 22.5308 23.3825C23.1102 22.9918 23.6049 22.4883 23.9852 21.902C24.3654 21.3156 24.6235 20.6586 24.7439 19.9702H18.7182V15.6542H29.1229C29.4786 17.6067 29.3824 19.6148 28.8415 21.5243C28.3437 23.2802 27.3767 24.8673 26.0445 26.1148C24.7645 27.278 23.2044 28.0887 21.5169 28.4678C19.6542 28.9057 17.7129 28.8847 15.8601 28.4066C13.5746 27.7929 11.5462 26.4626 10.0727 24.6109C8.59929 22.7592 7.75846 20.4838 7.67376 18.1189C7.58906 15.7541 8.26496 13.4244 9.60218 11.472Z" fill="#16273F"/>
</svg>
