<svg width="36" height="36" viewBox="0 0 36 36" fill="none" xmlns="http://www.w3.org/2000/svg">
<path fill-rule="evenodd" clip-rule="evenodd" d="M18 36C27.9411 36 36 27.9411 36 18C36 8.05887 27.9411 0 18 0C8.05888 0 0 8.05887 0 18C0 27.9411 8.05888 36 18 36ZM29.3829 26.1104C29.4588 26.1741 29.5346 26.2377 29.6101 26.3016C30.1114 26.7264 30.1377 27.0068 29.6402 27.4472C29.3671 27.6892 29.0558 27.9121 28.7253 28.054C27.5704 28.5491 26.563 29.2636 25.6893 30.1682C24.9809 30.9012 24.129 31.0437 23.194 30.9378C22.7068 30.8824 22.3902 30.5637 22.2029 30.1299C22.0501 29.7757 21.8322 29.6306 21.4527 29.6261C20.8502 29.6191 20.2477 29.6023 19.6453 29.5855C18.8458 29.5632 18.0464 29.5409 17.2471 29.5415C16.4214 29.5424 15.657 29.7908 15.052 30.4257C14.4725 31.0338 13.7504 31.1425 13.0308 30.8297C11.6074 30.2108 10.1191 29.8402 8.62915 29.4693C8.35014 29.3998 8.07108 29.3303 7.79238 29.2592C7.02663 29.064 6.94391 28.8426 7.02485 28.0281C7.10089 27.2683 7.10959 26.4966 7.08729 25.7319C7.0603 24.7927 7.10401 24.6271 7.99062 24.4917C9.11783 24.3198 9.71031 23.532 10.2352 22.6368C10.2963 22.533 10.2656 22.3346 10.2154 22.2056C10.0216 21.7077 10.0526 21.2206 10.3255 20.7852C10.9866 19.7309 11.3961 18.569 11.8068 17.4038C11.8538 17.2707 11.9007 17.1376 11.948 17.0045C12.1175 16.5284 12.3601 16.0681 12.6341 15.6455C13.114 14.9066 13.6095 14.1727 14.1634 13.4924C14.7394 12.7848 14.8732 12.0152 14.809 11.1232C14.6964 9.54924 14.6199 7.9696 14.6034 6.39203C14.586 4.75281 15.5165 3.57759 17.0554 3.16401C18.1143 2.8792 19.1524 2.96741 20.1551 3.41239C21.4639 3.99278 22.1855 5.07497 22.4782 6.45893C22.6279 7.1681 22.7113 7.90453 22.7193 8.62996C22.7358 10.2117 23.0629 11.6758 23.9754 12.9791C24.5587 13.8125 25.1302 14.6559 25.6775 15.5147C26.8658 17.3808 27.6681 19.3813 27.6092 21.6635C27.6083 21.697 27.6076 21.7307 27.6069 21.7645C27.6031 21.9488 27.5992 22.1346 27.5637 22.3128C27.5385 22.4395 27.4883 22.5608 27.4281 22.7067C27.3984 22.7785 27.3662 22.8563 27.3334 22.9436C27.7564 23.0642 27.8373 23.3742 27.8046 23.7346C27.7475 24.361 28.0095 24.8557 28.4265 25.2647C28.7302 25.5629 29.0568 25.8368 29.3829 26.1104ZM19.3183 6.76208C18.7149 6.87939 18.3182 7.26617 18.1491 7.86214C17.9152 8.68541 18.1973 9.2587 18.9657 9.49311C18.9601 9.38998 18.952 9.29357 18.9444 9.20188C18.9284 9.01041 18.9142 8.83948 18.9271 8.67075C18.9579 8.27023 19.1891 8.00672 19.4623 8.00283C19.7669 7.99847 20.0639 8.34217 20.0949 8.73032C20.1186 9.0259 20.0477 9.27474 19.7948 9.45163C19.7194 9.50432 19.6503 9.56646 19.5664 9.642C19.5236 9.68045 19.477 9.72238 19.4237 9.76829C19.4914 9.79386 19.548 9.81575 19.5978 9.83498C19.6859 9.869 19.7524 9.8947 19.82 9.91769C20.3846 10.1099 20.4979 10.0565 20.7394 9.48967C21.0337 8.79815 20.9204 8.13779 20.5757 7.50584C20.2555 6.91972 19.8258 6.66355 19.3183 6.76208ZM16.4435 7.11173C16.0189 6.81615 15.5901 6.9046 15.306 7.34636C14.8502 8.05415 15.0502 9.45644 15.7232 10.0751L16.1518 9.72911C16.0995 9.67088 16.0477 9.61979 15.9993 9.57204C15.9008 9.47493 15.8163 9.39163 15.7698 9.29009L15.767 9.28397C15.658 9.04463 15.5343 8.77313 15.5537 8.52685C15.5636 8.40236 15.6811 8.28676 15.7984 8.17124C15.8506 8.11985 15.9028 8.06848 15.9455 8.01635C15.9912 8.05735 16.0432 8.09567 16.0951 8.134C16.2109 8.21945 16.3267 8.30491 16.3735 8.42008C16.4488 8.60489 16.4763 8.81051 16.5038 9.01605C16.5154 9.10305 16.527 9.19004 16.5423 9.27543L16.6769 9.36112C16.7179 9.30813 16.7644 9.25704 16.8109 9.20594C16.9134 9.09331 17.0159 8.98067 17.0596 8.84764C17.2344 8.31605 16.8959 7.42702 16.4435 7.11173ZM23.0094 22.7679C23.5932 22.6797 23.6594 22.6547 23.7047 22.058C23.7385 21.6102 23.7327 21.1592 23.727 20.7081C23.7244 20.5102 23.7219 20.3123 23.7227 20.1145C23.7276 18.8637 23.4108 17.7093 22.8152 16.6152C22.6103 16.2391 22.4555 15.8342 22.3007 15.4295C22.2311 15.2474 22.1615 15.0654 22.0873 14.886C21.6162 13.7479 21.1454 12.6098 20.6658 11.449C20.601 11.4739 20.5427 11.4937 20.4896 11.5118C20.389 11.5461 20.3071 11.574 20.2345 11.6181C20.1419 11.6744 20.0488 11.7302 19.9557 11.7861C19.6013 11.9986 19.2463 12.2115 18.9129 12.4549C17.9257 13.175 17.0678 13.1368 16.1659 12.3014C15.9964 12.1444 15.8228 11.9924 15.6493 11.8404C15.5669 11.7682 15.4845 11.696 15.4026 11.6233L15.2449 11.704C15.2449 11.7947 15.2435 11.8856 15.242 11.9764C15.2388 12.1795 15.2355 12.3826 15.2485 12.5846C15.281 13.1049 15.0993 13.5208 14.8052 13.9456C14.4992 14.3885 14.2827 14.9048 14.0742 15.4093C13.9056 15.8177 13.7493 16.2318 13.5929 16.6458C13.3748 17.223 13.1569 17.8001 12.906 18.3617C12.423 19.4425 12.1853 20.5533 12.2062 21.7407C12.2152 22.2356 12.3572 22.6263 12.7291 22.9294C12.9332 23.0956 13.1383 23.2603 13.3435 23.4251C13.5771 23.6127 13.8108 23.8004 14.0428 23.9901C14.1631 24.0886 14.2848 24.1857 14.4065 24.2828C14.7403 24.5493 15.0744 24.8159 15.3823 25.111C15.9382 25.643 15.808 26.2583 15.1118 26.5493C15.0098 26.5918 14.9062 26.6302 14.7866 26.6745C14.7212 26.6987 14.6511 26.7247 14.5739 26.7541C15.0647 27.5772 15.6726 28.1587 16.6025 28.2753C18.7581 28.5455 20.5601 27.801 22.0684 26.2301C22.34 25.9471 22.4733 25.6291 22.4597 25.2235C22.4399 24.6319 22.4383 24.0384 22.4624 23.447C22.4834 22.9411 22.5949 22.8302 23.0094 22.7679Z" fill="#F2F7F2"/>
</svg>
