<svg width="36" height="36" viewBox="0 0 36 36" fill="none" xmlns="http://www.w3.org/2000/svg">
<path fill-rule="evenodd" clip-rule="evenodd" d="M18 36C27.9411 36 36 27.9411 36 18C36 8.05887 27.9411 0 18 0C8.05887 0 0 8.05887 0 18C0 27.9411 8.05887 36 18 36ZM6 12C6 10.8954 6.44772 9.89543 7.17157 9.17157L15.3646 17.3646C13.9873 18.8032 11.9514 20.8368 10.1718 22.5965C9.16192 23.595 8.23618 24.5038 7.5629 25.1629C7.22628 25.4924 6.95279 25.7596 6.76348 25.9443L6.59826 26.1054C6.21898 25.4939 6 24.7725 6 24V12ZM10.7471 23.1783C12.5194 21.4258 14.5558 19.3919 15.9433 17.9433L17.6464 19.6464L17.9886 20.0111C18.5488 19.4855 19.2276 18.8298 19.9697 18.102C21.3839 19.5716 23.4051 21.59 25.1698 23.3357C26.202 24.3568 27.1481 25.2862 27.836 25.9603C28.18 26.2973 28.4595 26.5705 28.653 26.7595L28.7762 26.8798C28.0568 27.5734 27.0782 28 26 28H10C8.85955 28 7.83057 27.5227 7.10191 26.757L7.11626 26.743L7.33486 26.5299C7.52446 26.3449 7.79827 26.0775 8.13526 25.7476C8.80922 25.0878 9.73597 24.178 10.7471 23.1783ZM25.7452 22.754C23.9759 21.0038 21.9579 18.9884 20.553 17.5282C21.9027 16.1964 23.4034 14.6894 24.7595 13.3181C25.9257 12.1391 26.9869 11.0584 27.7565 10.2726C28.1413 9.87965 28.4533 9.56039 28.6691 9.33933L28.8306 9.17378C29.5532 9.89746 30 10.8966 30 12V24C30 24.8357 29.7437 25.6115 29.3055 26.2531L29.2247 26.1742C29.0314 25.9855 28.7523 25.7125 28.4086 25.3758C27.7213 24.7024 26.7763 23.774 25.7452 22.754ZM28.036 8.55623C27.4396 8.20285 26.7435 8 26 8H10C9.25819 8 8.56355 8.20193 7.96803 8.55382L18.018 18.6038C19.6904 16.9984 22.0246 14.6613 24.0485 12.6149C25.2132 11.4373 26.2732 10.3579 27.0421 9.57288C27.4265 9.18038 27.7381 8.86151 27.9536 8.64079L28.036 8.55623Z" fill="#F2F7F2"/>
</svg>
