<svg width="36" height="36" viewBox="0 0 36 36" fill="none" xmlns="http://www.w3.org/2000/svg">
<path fill-rule="evenodd" clip-rule="evenodd" d="M36 18C36 27.9411 27.9411 36 18 36C8.05887 36 0 27.9411 0 18C0 8.05887 8.05887 0 18 0C27.9411 0 36 8.05887 36 18ZM18.8074 9.17506L17.0957 6.15207C17.0965 6.11022 17.0985 6.06302 17.1022 6.01197C17.1185 5.79072 17.1648 5.5557 17.2549 5.3704C17.3361 5.20351 17.4343 5.10792 17.577 5.05498C17.74 4.99448 18.1034 4.93805 18.8058 5.15246C20.3841 5.63425 21.3623 6.15397 21.926 6.52719C22.1497 6.6753 22.3091 6.80094 22.4156 6.89297L22.7779 9.9337L22.8021 10.1375L22.9048 10.3153L26.7372 16.9548L26.7372 16.9548L26.7372 16.9549L26.7381 16.9564L26.7423 16.9637L26.7603 16.9956C26.7765 17.0243 26.8009 17.0676 26.8322 17.1242C26.8948 17.2373 26.9851 17.4029 27.0938 17.6093C27.3118 18.0229 27.6017 18.5962 27.8907 19.2363C28.1806 19.8785 28.4634 20.5743 28.6721 21.2352C28.8852 21.9102 29 22.4844 29 22.9038C29 23.1014 28.8866 23.4058 28.4955 23.8155C28.1164 24.2125 27.5786 24.5991 26.9911 24.9464C26.4114 25.2891 25.8249 25.5694 25.3792 25.7651C25.1576 25.8624 24.9738 25.9375 24.8469 25.9877C24.7836 26.0128 24.7346 26.0316 24.7024 26.0437L24.667 26.057L24.6594 26.0598L24.6587 26.06L24.6584 26.0601L24.6582 26.0602L24.6582 26.0602L24.6192 26.0744L24.5809 26.092L18.2804 29H12.8978L8.80254 27.2498L8.77375 27.1286C8.6859 26.7571 8.56898 26.2495 8.4523 25.7041C8.20842 24.5642 8 23.4097 8 22.9038C8 22.4184 8.19997 21.4643 8.44267 20.5244C8.55663 20.083 8.67093 19.678 8.75752 19.3809L8.7745 19.3758C9.07977 19.2852 9.49453 19.1784 9.94245 19.108C10.396 19.0368 10.8467 19.0089 11.236 19.0541C11.6296 19.0998 11.8799 19.2103 12.0281 19.3422C12.6863 19.9282 13.0448 20.3744 13.2304 20.647C13.2831 20.7245 13.322 20.7881 13.3499 20.8371C13.3826 20.9406 13.4253 21.0283 13.4675 21.0991C13.5047 21.1614 13.5427 21.2126 13.5763 21.253C13.5933 21.2734 13.6095 21.2915 13.6244 21.3074C13.6284 21.3115 13.6323 21.3156 13.636 21.3194C13.6395 21.3229 13.6428 21.3263 13.6461 21.3296L13.6562 21.3396L13.6611 21.3443L13.6635 21.3466C13.6647 21.3478 13.6659 21.3489 14.3535 20.6228L13.6659 21.3489L16.4505 23.9863L15.418 20.677C15.5316 20.6163 15.691 20.5413 15.9107 20.4554C16.4028 20.2629 17.1429 20.0362 18.2403 19.7894C20.4284 19.2972 21.1364 19.619 21.2881 19.7267L21.2904 19.7283L21.3647 20.0179L23.3285 19.8678L22.3333 19.7695C23.3285 19.8678 23.3286 19.8667 23.3287 19.8656L23.3289 19.8633L23.3293 19.8587L23.3302 19.8487L23.3318 19.8261C23.3328 19.8099 23.3337 19.7913 23.3342 19.7705C23.3351 19.729 23.3346 19.6782 23.3306 19.6198C23.3228 19.5037 23.3013 19.3525 23.2487 19.1822C23.223 19.0991 23.1902 19.0128 23.1491 18.9252L22.6797 17.0952L21.4971 11.7885L21.426 11.4693L21.18 11.2539L18.8074 9.17506ZM14.3535 20.6228C15.017 20.4159 15.2192 20.3524 15.2809 20.3328L15.281 20.3335L14.3535 20.6228ZM24.1571 5.81667L23.3676 6.4304C24.1571 5.81667 24.1567 5.81617 24.1563 5.81566L24.1555 5.81462L24.1538 5.81246L24.1501 5.80782L24.1417 5.79727C24.1355 5.78967 24.1283 5.78095 24.1201 5.77117C24.1035 5.7516 24.0827 5.72775 24.0572 5.7C24.0063 5.64448 23.937 5.57344 23.8464 5.48972C23.6653 5.32214 23.4003 5.10466 23.0301 4.85954C22.2891 4.36902 21.1324 3.77155 19.3897 3.2396C18.4316 2.94713 17.5907 2.91656 16.881 3.17997C16.151 3.45094 15.7084 3.97729 15.4563 4.49571C15.2132 4.99572 15.1337 5.50937 15.1076 5.86547C15.0941 6.04951 15.0937 6.20693 15.097 6.32118C15.0986 6.37862 15.1012 6.42603 15.1036 6.46142C15.1048 6.47914 15.1059 6.49392 15.1069 6.50553L15.1082 6.52055L15.1088 6.52623L15.109 6.52861L15.1091 6.52968C15.1092 6.53018 15.1092 6.53067 16.1042 6.4304L15.1092 6.53067L15.1303 6.74002L15.234 6.92312L17.1506 10.3081L17.2342 10.4557L17.3618 10.5675L19.6161 12.5427L20.7303 17.5426C19.9573 17.4808 18.9946 17.5697 17.8014 17.8381C16.6453 18.0982 15.8002 18.3511 15.1821 18.5928C14.899 18.7035 14.6501 18.817 14.4338 18.9356C14.1632 18.6174 13.8123 18.253 13.358 17.8485C12.7946 17.3468 12.0961 17.1405 11.4667 17.0674C10.833 16.9938 10.1866 17.0451 9.63202 17.1323C9.07179 17.2203 8.56735 17.3511 8.20547 17.4585C8.02336 17.5125 7.87445 17.5615 7.76921 17.5977C7.71653 17.6158 7.6746 17.6308 7.64473 17.6416L7.60907 17.6548L7.59828 17.6588L7.5947 17.6602L7.59337 17.6607L7.59282 17.6609C7.59258 17.661 7.59235 17.6611 7.94885 18.5954L7.59235 17.6611L7.13881 17.8341L6.99423 18.2975L7.94885 18.5954C6.99423 18.2975 6.99421 18.2976 6.99419 18.2977L6.99412 18.2979L6.99392 18.2985L6.99326 18.3006L6.99094 18.3081L6.98242 18.3357L6.95104 18.4385C6.92422 18.5271 6.88616 18.6541 6.84061 18.8103C6.74965 19.1221 6.62808 19.5522 6.50618 20.0244C6.27446 20.9218 6 22.122 6 22.9038C6 23.665 6.266 25.0449 6.49655 26.1225C6.61708 26.6859 6.73737 27.208 6.82743 27.5888C6.8725 27.7794 6.91011 27.9352 6.93653 28.0435L6.96733 28.1692L6.97559 28.2025L6.97778 28.2113L6.97837 28.2137L6.97853 28.2143L6.97858 28.2146C6.9786 28.2146 6.97861 28.2147 7.94885 27.9725L6.97861 28.2147L7.09895 28.6968L7.55587 28.8921L12.3001 30.9195L12.4883 31H12.6931H18.5H18.7196L18.9191 30.908L25.3844 27.9239L25.41 27.9144C25.451 27.8989 25.5094 27.8764 25.5827 27.8474C25.7293 27.7894 25.9361 27.7049 26.1833 27.5963C26.6751 27.3804 27.3386 27.0643 28.0089 26.6681C28.6714 26.2764 29.3836 25.7815 29.942 25.1966C30.4884 24.6244 31 23.8466 31 22.9038C31 22.1827 30.8153 21.3808 30.5792 20.633C30.3387 19.8712 30.0225 19.0978 29.7135 18.4133C29.4035 17.7266 29.0944 17.1158 28.8632 16.6769C28.7474 16.4571 28.6505 16.2794 28.5821 16.1558C28.5478 16.0939 28.5207 16.0455 28.5018 16.0121L28.4798 15.9733L28.4737 15.9626L28.472 15.9595L28.4714 15.9586L28.4712 15.9582C28.4711 15.9581 28.4711 15.958 27.609 16.4537L28.4711 15.958L28.4702 15.9566L24.7395 9.49328L24.3606 6.3121L24.3277 6.03611L24.1571 5.81667ZM21.34 19.7777C21.3399 19.7778 21.3391 19.7765 21.3381 19.7736C21.3397 19.7762 21.3402 19.7776 21.34 19.7777Z" fill="#16273F"/>
</svg>
