<svg width="36" height="36" viewBox="0 0 36 36" fill="none" xmlns="http://www.w3.org/2000/svg">
<path fill-rule="evenodd" clip-rule="evenodd" d="M18 36C27.9411 36 36 27.9411 36 18C36 8.05887 27.9411 0 18 0C8.05887 0 0 8.05887 0 18C0 27.9411 8.05887 36 18 36ZM17.5761 6.34676L18.0179 6.14286L18.4597 6.34676L28.2472 10.5948L28.8929 10.8667V11.5804V24.6304C28.8929 26.4198 27.4198 27.8929 25.6304 27.8929H10.4054C8.61593 27.8929 7.14286 26.4198 7.14286 24.6304V11.5804V10.8667L7.78856 10.5948L17.5761 6.34676ZM26.7179 13.3815L18.0179 9.64325L9.31786 13.3815V24.6304C9.31786 25.2334 9.80229 25.7179 10.4054 25.7179H25.6304C26.2334 25.7179 26.7179 25.2334 26.7179 24.6304V13.3815ZM11.4929 18.1054V13.7554H24.5429V18.1054H11.4929ZM14.7554 15.9304C14.7554 15.2779 14.3204 14.8429 13.6679 14.8429C13.0154 14.8429 12.5804 15.2779 12.5804 15.9304C12.5804 16.5829 13.0154 17.0179 13.6679 17.0179C14.3204 17.0179 14.7554 16.5829 14.7554 15.9304ZM11.4929 23.5429V19.1929H24.5429V23.5429H11.4929ZM14.7554 21.3679C14.7554 20.7154 14.3204 20.2804 13.6679 20.2804C13.0154 20.2804 12.5804 20.7154 12.5804 21.3679C12.5804 22.0204 13.0154 22.4554 13.6679 22.4554C14.3204 22.4554 14.7554 22.0204 14.7554 21.3679Z" fill="#16273F"/>
</svg>
