<svg width="36" height="36" viewBox="0 0 36 36" fill="none" xmlns="http://www.w3.org/2000/svg">
<path fill-rule="evenodd" clip-rule="evenodd" d="M18 36C27.9411 36 36 27.9411 36 18C36 8.05887 27.9411 0 18 0C8.05887 0 0 8.05887 0 18C0 27.9411 8.05887 36 18 36ZM11.166 21.2402C10.7266 21.6471 10.5068 22.2249 10.5068 22.9736C10.5068 23.7142 10.7388 24.2879 11.2026 24.6948C11.6665 25.1017 12.3013 25.3052 13.1069 25.3052C13.8882 25.3052 14.4985 25.1017 14.938 24.6948C15.3856 24.2798 15.6094 23.7061 15.6094 22.9736C15.6094 22.2249 15.3937 21.6471 14.9624 21.2402C14.5311 20.8333 13.9126 20.6299 13.1069 20.6299C12.2606 20.6299 11.6136 20.8333 11.166 21.2402ZM11.1782 11.6089C10.7306 12.0158 10.5068 12.5895 10.5068 13.3301C10.5068 14.0625 10.7306 14.6362 11.1782 15.0513C11.634 15.4663 12.2769 15.6738 13.1069 15.6738C13.8963 15.6738 14.5107 15.4663 14.9502 15.0513C15.3896 14.6362 15.6094 14.0625 15.6094 13.3301C15.6094 12.5895 15.3937 12.0158 14.9624 11.6089C14.5311 11.202 13.9126 10.9985 13.1069 10.9985C12.2687 10.9985 11.6258 11.202 11.1782 11.6089ZM26.7607 24.1821C27.3467 22.2941 27.6396 20.1986 27.6396 17.8955C27.6396 15.5924 27.3508 13.4806 26.7729 11.5601C26.1951 9.6395 25.3407 8.00375 24.2095 6.65283H20.23C21.2879 8.12582 22.0854 9.82666 22.6226 11.7554C23.1597 13.6759 23.4282 15.7145 23.4282 17.8711C23.4282 20.0114 23.1556 22.0459 22.6104 23.9746C22.0651 25.8952 21.2798 27.5553 20.2544 28.9551H24.2095C25.3325 27.653 26.1829 26.062 26.7607 24.1821Z" fill="#16273F"/>
</svg>
