<svg width="36" height="36" viewBox="0 0 36 36" fill="none" xmlns="http://www.w3.org/2000/svg">
<path fill-rule="evenodd" clip-rule="evenodd" d="M18 36C27.9411 36 36 27.9411 36 18C36 8.05887 27.9411 0 18 0C8.05887 0 0 8.05887 0 18C0 27.9411 8.05887 36 18 36ZM16.9185 19.7271C16.7824 19.8667 16.7144 20.0672 16.7144 20.3286C16.7144 20.5864 16.7824 20.7887 16.9185 20.9355C17.0545 21.0824 17.2515 21.1558 17.5093 21.1558C17.7671 21.1558 17.964 21.0824 18.1001 20.9355C18.2397 20.7852 18.3096 20.5828 18.3096 20.3286C18.3096 20.078 18.2415 19.881 18.1055 19.7378C17.9694 19.591 17.7707 19.5176 17.5093 19.5176C17.2515 19.5176 17.0545 19.5874 16.9185 19.7271Z" fill="#16273F"/>
</svg>
