<svg width="36" height="36" viewBox="0 0 36 36" fill="none" xmlns="http://www.w3.org/2000/svg">
<path fill-rule="evenodd" clip-rule="evenodd" d="M18 36C27.9411 36 36 27.9411 36 18C36 8.05887 27.9411 0 18 0C8.05887 0 0 8.05887 0 18C0 27.9411 8.05887 36 18 36ZM5.82031 22H6.96777V16.5996H5.82031V22ZM5.91797 14.6953C5.8073 14.806 5.75195 14.9639 5.75195 15.1689C5.75195 15.3643 5.8073 15.5189 5.91797 15.6328C6.03191 15.7435 6.19304 15.7988 6.40137 15.7988C6.6032 15.7988 6.75945 15.7435 6.87012 15.6328C6.98405 15.5189 7.04102 15.3643 7.04102 15.1689C7.04102 14.9639 6.98405 14.806 6.87012 14.6953C6.75945 14.5846 6.6032 14.5293 6.40137 14.5293C6.19304 14.5293 6.03191 14.5846 5.91797 14.6953ZM9.22578 21.3848C9.65221 21.86 10.274 22.0977 11.091 22.0977C11.423 22.0977 11.7046 22.0716 11.9357 22.0195C12.1701 21.9675 12.3898 21.8812 12.5949 21.7607V20.7598C12.1392 21.0137 11.6558 21.1406 11.1447 21.1406C10.6955 21.1406 10.3537 20.9893 10.1193 20.6865C9.88821 20.3805 9.77266 19.9248 9.77266 19.3193C9.77266 18.0791 10.2398 17.459 11.174 17.459C11.4898 17.459 11.8902 17.5534 12.3752 17.7422L12.7219 16.8193C12.2661 16.6077 11.7534 16.502 11.1838 16.502C10.3439 16.502 9.70103 16.7461 9.25508 17.2344C8.81236 17.7227 8.59102 18.4209 8.59102 19.3291C8.59102 20.221 8.8026 20.9062 9.22578 21.3848ZM18.2758 21.3555C18.7283 20.8607 18.9545 20.1722 18.9545 19.29C18.9545 18.4372 18.7266 17.7601 18.2709 17.2588C17.8152 16.7542 17.1967 16.502 16.4154 16.502C15.5984 16.502 14.9652 16.7477 14.516 17.2393C14.0668 17.7308 13.8422 18.4144 13.8422 19.29C13.8422 19.8532 13.9464 20.348 14.1547 20.7744C14.363 21.2009 14.6609 21.528 15.0482 21.7559C15.4356 21.9837 15.8816 22.0977 16.3861 22.0977C17.1934 22.0977 17.8233 21.8503 18.2758 21.3555ZM16.4057 21.1602C15.4844 21.1602 15.0238 20.5368 15.0238 19.29C15.0238 18.6943 15.1313 18.237 15.3461 17.918C15.5642 17.599 15.9141 17.4395 16.3959 17.4395C17.3139 17.4395 17.7729 18.0563 17.7729 19.29C17.7729 20.5368 17.3171 21.1602 16.4057 21.1602ZM24.1764 22H25.3287V18.4795C25.3287 17.1611 24.6809 16.502 23.3853 16.502C23.0208 16.502 22.6887 16.5719 22.3893 16.7119C22.0898 16.8519 21.8587 17.0505 21.6959 17.3076H21.6373L21.4762 16.5996H20.5777V22H21.7252V19.3096C21.7252 18.6357 21.8375 18.1556 22.0621 17.8691C22.2867 17.5827 22.6415 17.4395 23.1266 17.4395C23.4911 17.4395 23.7564 17.542 23.9225 17.7471C24.0917 17.9521 24.1764 18.263 24.1764 18.6797V22ZM30.2771 21.6777C30.6613 21.3945 30.8533 20.9893 30.8533 20.4619C30.8533 20.2015 30.8045 19.9785 30.7068 19.793C30.6092 19.6042 30.4594 19.4382 30.2576 19.2949C30.0558 19.1517 29.7319 18.9938 29.2859 18.8213C28.7553 18.6162 28.4103 18.4551 28.2508 18.3379C28.0945 18.2207 28.0164 18.0775 28.0164 17.9082C28.0164 17.5632 28.3191 17.3906 28.9246 17.3906C29.3217 17.3906 29.8117 17.5111 30.3943 17.752L30.7654 16.8877C30.199 16.6305 29.5984 16.502 28.9637 16.502C28.3224 16.502 27.8146 16.6305 27.4402 16.8877C27.0691 17.1416 26.8836 17.4997 26.8836 17.9619C26.8836 18.346 26.9926 18.6585 27.2107 18.8994C27.4321 19.1403 27.8537 19.3812 28.4754 19.6221C28.7944 19.7458 29.0434 19.8564 29.2225 19.9541C29.4015 20.0518 29.5301 20.1462 29.6082 20.2373C29.6863 20.3284 29.7254 20.4424 29.7254 20.5791C29.7254 21.0055 29.3722 21.2188 28.6658 21.2188C28.1189 21.2188 27.5281 21.0723 26.8934 20.7793V21.7705C27.3296 21.9886 27.9074 22.0977 28.6268 22.0977C29.3429 22.0977 29.893 21.9577 30.2771 21.6777Z" fill="#16273F"/>
</svg>
