<svg width="36" height="36" viewBox="0 0 36 36" fill="none" xmlns="http://www.w3.org/2000/svg">
<path fill-rule="evenodd" clip-rule="evenodd" d="M18 36C27.9411 36 36 27.9411 36 18C36 8.05887 27.9411 0 18 0C8.05887 0 0 8.05887 0 18C0 27.9411 8.05887 36 18 36ZM6.86035 21H7.91504V14.5752H6.86035V17.2031H3.89844V14.5752H2.84814V21H3.89844V18.104H6.86035V21ZM12.6015 20.3232L12.8081 21H13.5464V17.7261C13.5464 17.1489 13.3882 16.7256 13.0717 16.4561C12.7583 16.1865 12.2924 16.0518 11.6743 16.0518C11.396 16.0518 11.1001 16.0884 10.7866 16.1616C10.4731 16.2319 10.1845 16.3359 9.92087 16.4736L10.2549 17.2119C10.4658 17.1123 10.6855 17.0259 10.914 16.9526C11.1425 16.8794 11.3813 16.8428 11.6303 16.8428C11.935 16.8428 12.1591 16.9204 12.3027 17.0757C12.4492 17.228 12.5224 17.4595 12.5224 17.77V18.0293L11.6831 18.0557C10.9214 18.0791 10.3545 18.2183 9.98239 18.4731C9.61032 18.728 9.42429 19.106 9.42429 19.6069C9.42429 20.0786 9.55759 20.4434 9.82419 20.7012C10.0937 20.959 10.4673 21.0879 10.9448 21.0879C11.3169 21.0879 11.6216 21.0352 11.8589 20.9297C12.0962 20.8213 12.332 20.6191 12.5664 20.3232H12.6015ZM12.1709 19.9849C11.9453 20.1929 11.645 20.2969 11.27 20.2969C11.0122 20.2969 10.8188 20.2383 10.6899 20.1211C10.561 20.001 10.4966 19.8325 10.4966 19.6157C10.4966 19.3169 10.6064 19.0957 10.8261 18.9521C11.0488 18.8057 11.4033 18.7236 11.8896 18.7061L12.5136 18.6797V19.1016C12.5136 19.4795 12.3994 19.7739 12.1709 19.9849ZM14.5195 16.1396L16.3652 21H17.4814L19.3359 16.1396H18.2373L17.2485 18.9653C17.0698 19.522 16.9673 19.9058 16.9409 20.1167H16.9057C16.8706 19.8237 16.768 19.4399 16.5981 18.9653L15.6093 16.1396H14.5195ZM20.3442 21H21.3769V16.1396H20.3442V21ZM20.4321 14.4258C20.3325 14.5254 20.2827 14.6675 20.2827 14.8521C20.2827 15.0278 20.3325 15.167 20.4321 15.2695C20.5346 15.3691 20.6796 15.4189 20.8671 15.4189C21.0488 15.4189 21.1894 15.3691 21.289 15.2695C21.3915 15.167 21.4428 15.0278 21.4428 14.8521C21.4428 14.6675 21.3915 14.5254 21.289 14.4258C21.1894 14.3262 21.0488 14.2764 20.8671 14.2764C20.6796 14.2764 20.5346 14.3262 20.4321 14.4258ZM26.3666 21H27.4037V17.8315C27.4037 16.645 26.8207 16.0518 25.6547 16.0518C25.3266 16.0518 25.0277 16.1147 24.7582 16.2407C24.4887 16.3667 24.2807 16.5454 24.1342 16.7769H24.0815L23.9364 16.1396H23.1278V21H24.1606V18.5786C24.1606 17.9722 24.2616 17.54 24.4638 17.2822C24.6659 17.0244 24.9853 16.8955 25.4218 16.8955C25.7499 16.8955 25.9887 16.9878 26.1381 17.1724C26.2904 17.3569 26.3666 17.6367 26.3666 18.0117V21ZM33.2152 16.7065V16.1396H31.5321C31.456 16.1191 31.3417 16.1001 31.1894 16.0825C31.0399 16.062 30.8964 16.0518 30.7587 16.0518C30.1435 16.0518 29.6689 16.1968 29.3349 16.4868C29.0038 16.7769 28.8383 17.1855 28.8383 17.7129C28.8383 18.041 28.9159 18.3281 29.0712 18.5742C29.2294 18.8174 29.4345 18.9932 29.6864 19.1016C29.4843 19.2246 29.3319 19.3491 29.2294 19.4751C29.1269 19.6011 29.0756 19.7549 29.0756 19.9365C29.0756 20.0801 29.1195 20.2178 29.2074 20.3496C29.2982 20.4785 29.4125 20.5723 29.5502 20.6309C29.2104 20.71 28.9452 20.8506 28.7548 21.0527C28.5673 21.2578 28.4735 21.5098 28.4735 21.8086C28.4735 22.2422 28.6479 22.5762 28.9965 22.8105C29.3451 23.0449 29.8505 23.1621 30.5126 23.1621C31.371 23.1621 32.0273 23.0127 32.4814 22.7139C32.9355 22.415 33.1625 21.9902 33.1625 21.4395C33.1625 21.0088 33.0233 20.6792 32.745 20.4507C32.4667 20.2222 32.0595 20.1079 31.5233 20.1079H30.6752C30.3969 20.1079 30.205 20.0801 30.0995 20.0244C29.997 19.9688 29.9457 19.8853 29.9457 19.7739C29.9457 19.5894 30.057 19.4282 30.2797 19.2905C30.4057 19.314 30.5463 19.3257 30.7016 19.3257C31.308 19.3257 31.7841 19.1821 32.1298 18.895C32.4755 18.6079 32.6483 18.2139 32.6483 17.7129C32.6483 17.5459 32.6234 17.3877 32.5736 17.2383C32.5238 17.0889 32.4608 16.9629 32.3847 16.8604L33.2152 16.7065ZM29.6952 22.27C29.496 22.1499 29.3964 21.9785 29.3964 21.7559C29.3964 21.5186 29.4828 21.3296 29.6557 21.189C29.8315 21.0513 30.0673 20.9824 30.3632 20.9824H31.1454C31.5556 20.9824 31.8354 21.0264 31.9848 21.1143C32.1371 21.2051 32.2133 21.356 32.2133 21.5669C32.2133 21.8335 32.0756 22.0474 31.8002 22.2085C31.5248 22.3696 31.1059 22.4502 30.5434 22.4502C30.1801 22.4502 29.8974 22.3901 29.6952 22.27ZM30.0732 18.416C29.9179 18.252 29.8402 18.0176 29.8402 17.7129C29.8402 17.3877 29.9164 17.1401 30.0688 16.9702C30.224 16.8003 30.4511 16.7153 30.7499 16.7153C31.0517 16.7153 31.2758 16.8018 31.4223 16.9746C31.5717 17.1445 31.6464 17.3877 31.6464 17.7041C31.6464 18.3428 31.3476 18.6621 30.7499 18.6621C30.4569 18.6621 30.2314 18.5801 30.0732 18.416Z" fill="#16273F"/>
</svg>
