<svg width="36" height="36" viewBox="0 0 36 36" fill="none" xmlns="http://www.w3.org/2000/svg">
<path fill-rule="evenodd" clip-rule="evenodd" d="M18 36C27.9411 36 36 27.9411 36 18C36 8.05887 27.9411 0 18 0C8.05887 0 0 8.05887 0 18C0 27.9411 8.05887 36 18 36ZM13.4844 21H14.9824V17.2803C14.9824 16.5312 15.1157 15.9769 15.3823 15.6172C15.6532 15.2533 16.0785 15.0713 16.6582 15.0713C17.0898 15.0713 17.4072 15.2046 17.6104 15.4712C17.8177 15.7336 17.9214 16.1335 17.9214 16.6709V21H19.4131V16.4233C19.4131 15.5558 19.2206 14.9105 18.8354 14.4873C18.4546 14.0641 17.8452 13.8525 17.0073 13.8525C16.5207 13.8525 16.089 13.9499 15.7124 14.1445C15.3358 14.3392 15.0438 14.61 14.8364 14.957H14.7349C14.3836 14.2207 13.6685 13.8525 12.5894 13.8525C12.145 13.8525 11.7367 13.9435 11.3643 14.1255C10.9961 14.3074 10.7147 14.5656 10.52 14.8999H10.4438L10.2344 13.9795H9.06641V21H10.5581V17.5024C10.5581 16.6307 10.6914 16.0086 10.958 15.6362C11.2289 15.2596 11.652 15.0713 12.2275 15.0713C12.6592 15.0713 12.9766 15.2046 13.1797 15.4712C13.3828 15.7336 13.4844 16.1335 13.4844 16.6709V21ZM22.4437 13.9795H20.8187L23.6371 21L23.3768 21.6602C23.0848 22.4938 22.5791 22.9106 21.8597 22.9106C21.572 22.9106 21.3159 22.8853 21.0917 22.8345V24.0151C21.4048 24.0871 21.7264 24.123 22.0565 24.123C23.3303 24.123 24.2401 23.3931 24.786 21.9331L27.7885 13.9795H26.1761C25.2028 16.8021 24.6654 18.3805 24.5638 18.7148C24.4623 19.0449 24.3925 19.3263 24.3544 19.5591H24.3036C24.2316 19.0597 24.0878 18.5265 23.8719 17.9595L22.4437 13.9795Z" fill="#16273F"/>
</svg>
