<svg width="36" height="36" viewBox="0 0 36 36" fill="none" xmlns="http://www.w3.org/2000/svg">
<path fill-rule="evenodd" clip-rule="evenodd" d="M18 36C27.9411 36 36 27.9411 36 18C36 8.05887 27.9411 0 18 0C8.05887 0 0 8.05887 0 18C0 27.9411 8.05887 36 18 36ZM10.918 21.2266C11.4609 20.6328 11.7324 19.8066 11.7324 18.748C11.7324 17.7246 11.459 16.9121 10.9121 16.3105C10.3652 15.7051 9.62305 15.4023 8.68555 15.4023C7.70508 15.4023 6.94531 15.6973 6.40625 16.2871C5.86719 16.877 5.59766 17.6973 5.59766 18.748C5.59766 19.4238 5.72266 20.0176 5.97266 20.5293C6.22266 21.041 6.58008 21.4336 7.04492 21.707C7.50977 21.9805 8.04492 22.1172 8.65039 22.1172C9.61914 22.1172 10.375 21.8203 10.918 21.2266ZM8.67383 20.9922C7.56836 20.9922 7.01562 20.2441 7.01562 18.748C7.01562 18.0332 7.14453 17.4844 7.40234 17.1016C7.66406 16.7188 8.08398 16.5273 8.66211 16.5273C9.76367 16.5273 10.3145 17.2676 10.3145 18.748C10.3145 20.2441 9.76758 20.9922 8.67383 20.9922ZM18.1569 18.9766L18.9948 22H20.5416L22.3698 15.5195H20.987L20.1491 18.7129C19.9342 19.5762 19.7975 20.248 19.7389 20.7285H19.692C19.6764 20.5098 19.6237 20.2031 19.5338 19.8086C19.4479 19.4141 19.3756 19.1211 19.317 18.9297L18.362 15.5195H16.8502L15.8659 18.9297C15.8073 19.1133 15.737 19.3906 15.6549 19.7617C15.5768 20.1289 15.5182 20.4551 15.4791 20.7402H15.444C15.3659 20.1777 15.233 19.502 15.0455 18.7129L14.2194 15.5195H12.8131L14.6295 22H16.153L17.0143 18.9883C17.1471 18.5469 17.3268 17.7988 17.5534 16.7441H17.6061C17.8717 17.9121 18.0553 18.6562 18.1569 18.9766ZM28.1673 22H29.5501V17.7754C29.5501 16.1934 28.7727 15.4023 27.218 15.4023C26.7805 15.4023 26.3821 15.4863 26.0227 15.6543C25.6634 15.8223 25.386 16.0605 25.1907 16.3691H25.1204L24.927 15.5195H23.8489V22H25.2259V18.7715C25.2259 17.9629 25.3606 17.3867 25.6302 17.043C25.8997 16.6992 26.3255 16.5273 26.9075 16.5273C27.345 16.5273 27.6634 16.6504 27.8626 16.8965C28.0657 17.1426 28.1673 17.5156 28.1673 18.0156V22Z" fill="#16273F"/>
</svg>
