<svg width="36" height="36" viewBox="0 0 36 36" fill="none" xmlns="http://www.w3.org/2000/svg">
<path fill-rule="evenodd" clip-rule="evenodd" d="M18 36C27.9411 36 36 27.9411 36 18C36 8.05887 27.9411 0 18 0C8.05887 0 0 8.05887 0 18C0 27.9411 8.05887 36 18 36ZM22.5226 23.314L23.7886 18.4899L25.3118 24.1236H26.9656L28.8031 18.2269H28.8699L30.7575 24.1236H32.4447L34.6497 15.7212H32.9458L31.4925 21.8517H31.4591L29.5715 15.7212H28.1349L26.2473 21.8684H26.2139L24.7606 15.7212H24.5152L25.2946 12.751H23.1526L21.3256 20.458H21.2836L18.9106 12.751H17.1046L14.7316 20.479H14.6896L12.8626 12.751H10.6996L11.4381 15.4821H11.2819L9.78709 21.7878H9.75272L7.81118 15.4821H6.33354L4.39199 21.805H4.35763L2.86281 15.4821H1.09309L3.42981 24.1245H5.13081L7.02081 18.0593H7.08954L9.03109 24.1245H10.7664L12.2482 18.4783L13.5556 23.314H15.6346L17.9446 15.901H18.0286L20.4016 23.314H22.5226Z" fill="#F2F7F2"/>
</svg>
