<svg width="36" height="36" viewBox="0 0 36 36" fill="none" xmlns="http://www.w3.org/2000/svg">
<path fill-rule="evenodd" clip-rule="evenodd" d="M18 36C27.9411 36 36 27.9411 36 18C36 8.05887 27.9411 0 18 0C8.05887 0 0 8.05887 0 18C0 27.9411 8.05887 36 18 36ZM7.87405 22.619C7.87405 19.1442 10.406 16.2607 13.7256 15.7128C13.2104 14.5083 12.2661 11.7693 13.9901 11.1005C16.2178 10.2363 19.7822 10.2363 22.0099 11.1005C23.7545 11.7773 22.7666 14.5742 22.256 15.7554C25.4601 16.397 27.8741 19.2261 27.8741 22.619V28.4524H7.87405V22.619ZM18 24.5C19.6569 24.5 21 23.1568 21 21.5C21 19.8431 19.6569 18.5 18 18.5C16.3431 18.5 15 19.8431 15 21.5C15 23.1568 16.3431 24.5 18 24.5ZM18 26C20.4853 26 22.5 23.9852 22.5 21.5C22.5 19.0147 20.4853 17 18 17C15.5147 17 13.5 19.0147 13.5 21.5C13.5 23.9852 15.5147 26 18 26ZM30.7139 16.2863L24.4032 14.3135C24.4167 14.0576 24.4522 13.7994 24.5113 13.5421C24.645 12.96 24.8851 12.4443 25.2006 12.0158C23.8109 10.7463 21.5785 9.5 17.9924 9.5C14.3163 9.5 12.0627 10.8097 10.6812 12.1115C10.9631 12.5203 11.1784 13.0027 11.3022 13.5421C11.3613 13.7994 11.3969 14.0575 11.4104 14.3135L5.09968 16.2863C5.00169 16.0567 4.92182 15.8124 4.86273 15.5551C4.38626 13.4805 5.44153 11.3481 7.21975 10.7922C7.75958 10.6235 8.30398 10.6194 8.81375 10.7536C9.89828 7.38026 13.6029 6.5 18 6.5C22.3808 6.5 26.0637 7.37375 27.1601 10.7162C27.6229 10.622 28.1102 10.641 28.5938 10.7922C30.372 11.3481 31.4273 13.4805 30.9508 15.5551C30.8917 15.8124 30.8119 16.0567 30.7139 16.2863Z" fill="#F2F7F2"/>
</svg>
