<svg width="36" height="36" viewBox="0 0 36 36" fill="none" xmlns="http://www.w3.org/2000/svg">
<path fill-rule="evenodd" clip-rule="evenodd" d="M17.9999 0C8.06011 0 0 8.2624 0 18.4557C0 26.6102 5.15751 33.5279 12.3094 35.9686C13.2087 36.1397 13.5389 35.5682 13.5389 35.0808C13.5389 34.6407 13.5222 33.1868 13.5145 31.6447C8.50692 32.7611 7.45026 29.4672 7.45026 29.4672C6.63146 27.3339 5.4517 26.7667 5.4517 26.7667C3.81828 25.6212 5.5748 25.6451 5.5748 25.6451C7.382 25.775 8.33404 27.547 8.33404 27.547C9.93944 30.3678 12.5449 29.5524 13.572 29.0812C13.7336 27.8883 14.2001 27.0739 14.7148 26.613C10.7168 26.1469 6.51372 24.5641 6.51372 17.4924C6.51372 15.4775 7.21717 13.8311 8.36861 12.5383C8.18142 12.0738 7.56531 10.1967 8.54269 7.65453C8.54269 7.65453 10.0539 7.15851 13.4936 9.54631C14.9297 9.13709 16.4699 8.9314 17.9999 8.92438C19.5289 8.9314 21.07 9.13648 22.5088 9.5457C25.9443 7.1579 27.4537 7.65392 27.4537 7.65392C28.4335 10.1957 27.8174 12.0732 27.6305 12.5377C28.7846 13.8305 29.483 15.4768 29.483 17.4918C29.483 24.5803 25.2722 26.1408 21.264 26.598C21.9099 27.1707 22.4852 28.2942 22.4852 30.0157C22.4852 32.4851 22.4643 34.4726 22.4643 35.0805C22.4643 35.5716 22.7886 36.1471 23.7007 35.9658C30.8485 33.5227 36 26.6072 36 18.4557C35.9997 8.26301 27.9405 0.000305597 17.9999 0.000305597V0Z" fill="#F2F7F2"/>
<path d="M6.81746 26.498C6.77781 26.5897 6.63713 26.6172 6.50895 26.5546C6.3778 26.4947 6.30478 26.3697 6.3471 26.2777C6.38585 26.1829 6.52684 26.157 6.6571 26.2202C6.78825 26.2804 6.86276 26.4066 6.81716 26.4983L6.81746 26.498ZM7.54654 27.3321C7.46099 27.4137 7.29318 27.3758 7.17931 27.2465C7.06128 27.1181 7.03922 26.9461 7.12656 26.8632C7.21538 26.7819 7.37813 26.8204 7.49616 26.9488C7.6136 27.079 7.63685 27.2495 7.54683 27.3324L7.54654 27.3321ZM8.25654 28.3947C8.14625 28.4735 7.96562 28.3999 7.85414 28.2358C7.74386 28.0713 7.74386 27.8742 7.85713 27.7957C7.96831 27.7168 8.14625 27.788 8.25952 27.9506C8.36921 28.1172 8.36921 28.3143 8.25654 28.3944V28.3947ZM9.22855 29.4219C9.13018 29.5334 8.91974 29.5035 8.76594 29.3516C8.60886 29.2027 8.56504 28.991 8.6637 28.8797C8.76385 28.7679 8.97519 28.799 9.12988 28.95C9.28697 29.0985 9.33436 29.3106 9.22914 29.4216L9.22855 29.4219ZM10.5699 30.0181C10.526 30.1627 10.324 30.2284 10.1198 30.1667C9.91619 30.1034 9.78296 29.9344 9.82469 29.7883C9.86642 29.6425 10.07 29.5744 10.2754 29.6401C10.4789 29.703 10.6122 29.8711 10.5699 30.0181ZM12.0432 30.1285C12.0483 30.2807 11.8754 30.4066 11.6617 30.4096C11.4462 30.4148 11.2718 30.2914 11.2697 30.1416C11.2697 29.9879 11.439 29.8635 11.6542 29.8592C11.868 29.8552 12.0435 29.9775 12.0435 30.1282L12.0432 30.1285ZM13.4137 29.8895C13.4394 30.0377 13.2906 30.1902 13.0781 30.2308C12.8695 30.2706 12.6757 30.1783 12.6489 30.0313C12.6233 29.8791 12.7747 29.7266 12.9833 29.6872C13.1962 29.6496 13.3869 29.7391 13.4137 29.8898V29.8895Z" fill="#F2F7F2"/>
</svg>
