<svg width="36" height="36" viewBox="0 0 36 36" fill="none" xmlns="http://www.w3.org/2000/svg">
<path fill-rule="evenodd" clip-rule="evenodd" d="M18 36C27.9411 36 36 27.9411 36 18C36 8.05887 27.9411 0 18 0C8.05887 0 0 8.05887 0 18C0 27.9411 8.05887 36 18 36ZM6.52725 6.49953C6.85917 6.17498 7.30629 5.99537 7.77049 6.00009H28.2295C28.6924 5.99639 29.138 6.17553 29.4696 6.49859C29.8011 6.82165 29.9917 7.2625 30 7.72532V28.2668C29.9938 28.731 29.8041 29.1739 29.4723 29.4986C29.1406 29.8234 28.6937 30.0036 28.2295 29.9999H7.77049C7.30696 30.0046 6.86044 29.8256 6.52862 29.5019C6.19681 29.1782 6.00674 28.7362 6 28.2727V7.73123C6.00571 7.26704 6.19533 6.82407 6.52725 6.49953ZM11.3341 26.459C12.3179 26.459 13.1154 25.6614 13.1154 24.6776V16.7774C13.1154 15.7936 12.3179 14.9961 11.3341 14.9961C10.3503 14.9961 9.55279 15.7936 9.55279 16.7774V24.6776C9.55279 25.6614 10.3503 26.459 11.3341 26.459ZM11.3397 13.4341C11.3408 13.4341 11.3411 13.4326 11.34 13.4322C11.339 13.4318 11.3393 13.4302 11.3404 13.4302C11.6102 13.4305 11.8774 13.378 12.1271 13.2756C12.3783 13.1725 12.6068 13.0209 12.7994 12.8294C12.992 12.6379 13.1449 12.4103 13.2494 12.1596C13.3539 11.909 13.408 11.6402 13.4085 11.3686C13.4085 10.96 13.2873 10.5605 13.0603 10.2208C12.8332 9.88109 12.5105 9.61634 12.133 9.46006C11.7554 9.30378 11.34 9.26299 10.9393 9.34285C10.5385 9.42271 10.1705 9.61963 9.88167 9.9087C9.59288 10.1978 9.39631 10.566 9.31683 10.9668C9.23735 11.3676 9.27853 11.783 9.43517 12.1604C9.59181 12.5378 9.85687 12.8603 10.1968 13.087C10.5353 13.3127 10.9329 13.4335 11.3397 13.4341ZM24.6777 26.459C25.6615 26.459 26.459 25.6614 26.459 24.6776V20.1639C26.459 17.0853 25.7902 14.7108 22.1823 14.7187C20.4591 14.7187 19.3019 15.658 18.8207 16.5543C18.8156 16.5639 18.8056 16.5698 18.7947 16.5698C18.7784 16.5698 18.7652 16.5567 18.7652 16.5404V15.783C18.7652 15.3484 18.4129 14.9961 17.9784 14.9961H17.0577C16.1147 14.9961 15.3502 15.7606 15.3502 16.7036V24.6806C15.3502 25.6628 16.1464 26.459 17.1285 26.459C18.1107 26.459 18.9069 25.6628 18.9069 24.6806V20.7954C18.9069 19.2924 19.2177 17.8446 21.0452 17.8446C22.8728 17.8446 22.8964 19.5541 22.8964 20.8819V24.6776C22.8964 25.6614 23.6939 26.459 24.6777 26.459Z" fill="#F2F7F2"/>
</svg>
