<svg xmlns="http://www.w3.org/2000/svg" viewBox="0 0 64 64"><path fill="#8b8e98" d="M61,47H3c-1.105,0-2-0.895-2-2V9c0-1.105,0.895-2,2-2h58c1.105,0,2,0.895,2,2v36 C63,46.105,62.105,47,61,47z"/><path fill="#c2cde7" d="M27 47H37V53H27z"/><path fill="#acb7d0" d="M46 57H18l2.828-2.828c.75-.75 1.768-1.172 2.828-1.172h16.686c1.061 0 2.078.421 2.828 1.172L46 57zM21 15v20c0 1.105-.895 2-2 2H9c-1.105 0-2-.895-2-2V15c0-1.105.895-2 2-2h10C20.105 13 21 13.895 21 15zM57 15v20c0 1.105-.895 2-2 2H29c-1.105 0-2-.895-2-2V15c0-1.105.895-2 2-2h26C56.105 13 57 13.895 57 15z"/><path fill="#c5e4fa" d="M27 13H53V37H27zM21 15v16c0 1.105-.895 2-2 2H9c-1.105 0-2-.895-2-2V15c0-1.105.895-2 2-2h10C20.105 13 21 13.895 21 15z"/><path fill="#e3f2ff" d="M43.883 12L27.24 28.643 27.24 22.64 37.88 12zM21 25.14L21 31.57 19.57 33 13.14 33zM21 14L21 20.86 7 34.86 7 27.5 20.5 14zM53 37L53 19.683 35.683 37zM30.878 37L53 14.878 53 12 48.677 12 27.24 33.437 27.24 37z"/><path fill="#8d6c9f" d="M61,6H3C1.346,6,0,7.346,0,9v36c0,1.654,1.346,3,3,3h23v4h-2.343c-1.335,0-2.591,0.521-3.535,1.465 l-2.829,2.828c-0.286,0.286-0.372,0.716-0.217,1.09C17.231,57.756,17.596,58,18,58h28c0.404,0,0.769-0.244,0.924-0.617 c0.155-0.374,0.069-0.804-0.217-1.09l-2.829-2.828C42.934,52.521,41.678,52,40.343,52H38v-4h23c1.654,0,3-1.346,3-3V9 C64,7.346,62.654,6,61,6z M40.343,54c0.79,0,1.562,0.32,2.121,0.879L43.585,56H20.415l1.121-1.121 C22.094,54.32,22.867,54,23.657,54H26h12H40.343z M36,52h-8v-4h8V52z M62,45c0,0.552-0.449,1-1,1H38H26H3c-0.551,0-1-0.448-1-1V9 c0-0.552,0.449-1,1-1h58c0.551,0,1,0.448,1,1V45z"/><path fill="#8d6c9f" d="M22 35V15c0-1.654-1.346-3-3-3H9c-1.654 0-3 1.346-3 3v20c0 1.654 1.346 3 3 3h10C20.654 38 22 36.654 22 35zM9 14h10c.551 0 1 .448 1 1v17H8V15C8 14.448 8.449 14 9 14zM19 36H9c-.551 0-1-.448-1-1v-1h12v1C20 35.552 19.551 36 19 36zM55 12H29c-1.654 0-3 1.346-3 3v20c0 1.654 1.346 3 3 3h26c1.654 0 3-1.346 3-3V15C58 13.346 56.654 12 55 12zM56 35c0 .552-.449 1-1 1h-1v-6c0-.553-.448-1-1-1s-1 .447-1 1v6H29c-.551 0-1-.448-1-1V15c0-.552.449-1 1-1h23v6c0 .553.448 1 1 1s1-.447 1-1v-6h1c.551 0 1 .448 1 1V35z"/><path fill="#8d6c9f" d="M30 23c-.552 0-1 .447-1 1v2c0 .553.448 1 1 1s1-.447 1-1v-2C31 23.447 30.552 23 30 23zM53 23c-.552 0-1 .447-1 1v2c0 .553.448 1 1 1s1-.447 1-1v-2C54 23.447 53.552 23 53 23zM13 17h2c.552 0 1-.447 1-1s-.448-1-1-1h-2c-.552 0-1 .447-1 1S12.448 17 13 17zM7 40c-.552 0-1 .447-1 1v2c0 .553.448 1 1 1s1-.447 1-1v-2C8 40.447 7.552 40 7 40zM12 40c-.552 0-1 .447-1 1v2c0 .553.448 1 1 1s1-.447 1-1v-2C13 40.447 12.552 40 12 40zM17 40c-.552 0-1 .447-1 1v2c0 .553.448 1 1 1s1-.447 1-1v-2C18 40.447 17.552 40 17 40zM22 40c-.552 0-1 .447-1 1v2c0 .553.448 1 1 1s1-.447 1-1v-2C23 40.447 22.552 40 22 40zM27 40c-.552 0-1 .447-1 1v2c0 .553.448 1 1 1s1-.447 1-1v-2C28 40.447 27.552 40 27 40zM32 40c-.552 0-1 .447-1 1v2c0 .553.448 1 1 1s1-.447 1-1v-2C33 40.447 32.552 40 32 40zM37 40c-.552 0-1 .447-1 1v2c0 .553.448 1 1 1s1-.447 1-1v-2C38 40.447 37.552 40 37 40zM42 40c-.552 0-1 .447-1 1v2c0 .553.448 1 1 1s1-.447 1-1v-2C43 40.447 42.552 40 42 40zM47 40c-.552 0-1 .447-1 1v2c0 .553.448 1 1 1s1-.447 1-1v-2C48 40.447 47.552 40 47 40zM52 40c-.552 0-1 .447-1 1v2c0 .553.448 1 1 1s1-.447 1-1v-2C53 40.447 52.552 40 52 40zM57 40c-.552 0-1 .447-1 1v2c0 .553.448 1 1 1s1-.447 1-1v-2C58 40.447 57.552 40 57 40z"/><path fill="#fff8f8" d="M12.419 20L13.274 21.564 14.838 22.419 13.274 23.274 12.419 24.838 11.564 23.274 10 22.419 11.564 21.564zM36.502 20.498L37.74 22.762 40.004 24 37.74 25.238 36.502 27.502 35.264 25.238 33 24 35.264 22.762zM46.352 30L46.935 31.065 48 31.648 46.935 32.231 46.352 33.296 45.769 32.231 44.704 31.648 45.769 31.065z"/></svg>