<svg width="134" height="134" viewBox="0 0 134 134" fill="none" xmlns="http://www.w3.org/2000/svg">
<path fill-rule="evenodd" clip-rule="evenodd" d="M67 134C104.003 134 134 104.003 134 67C134 29.9969 104.003 0 67 0C29.9969 0 0 29.9969 0 67C0 104.003 29.9969 134 67 134ZM38.1318 58.3506C39.932 55.7074 42.4385 54.3857 45.6514 54.3857C47.7705 54.3857 49.7529 54.682 51.5986 55.2744C53.4443 55.8669 55.29 56.596 57.1357 57.4619L61.2715 46.832C56.3496 44.485 51.1885 43.3115 45.7881 43.3115C40.8434 43.3115 36.5368 44.3711 32.8682 46.4902C29.2223 48.5866 26.4196 51.5944 24.46 55.5137C22.5231 59.4329 21.5547 63.9788 21.5547 69.1514C21.5547 77.4229 23.5599 83.7461 27.5703 88.1211C31.6035 92.4961 37.3913 94.6836 44.9336 94.6836C50.1973 94.6836 54.9141 93.7607 59.084 91.915V80.499C56.9876 81.3649 54.9027 82.1055 52.8291 82.7207C50.7555 83.3359 48.6136 83.6436 46.4033 83.6436C39.0889 83.6436 35.4316 78.8356 35.4316 69.2197C35.4316 64.5941 36.3317 60.971 38.1318 58.3506ZM114.128 44.0293H99.0209L92.0824 69.4932C91.7178 70.8604 91.2963 72.7402 90.8178 75.1328C90.3393 77.5254 90.0202 79.5192 89.8607 81.1143C89.724 78.904 88.9493 74.9847 87.5365 69.3564L80.7348 44.0293H65.559L81.8627 94H97.7562L114.128 44.0293Z" fill="#F2F7F2"/>
</svg>
