<?xml version="1.0" encoding="UTF-8" standalone="no"?>
<!-- Generator: Adobe Illustrator 16.0.0, SVG Export Plug-In . SVG Version: 6.00 Build 0)  -->

<svg
   xmlns:dc="http://purl.org/dc/elements/1.1/"
   xmlns:cc="http://creativecommons.org/ns#"
   xmlns:rdf="http://www.w3.org/1999/02/22-rdf-syntax-ns#"
   xmlns:svg="http://www.w3.org/2000/svg"
   xmlns="http://www.w3.org/2000/svg"
   xmlns:sodipodi="http://sodipodi.sourceforge.net/DTD/sodipodi-0.dtd"
   xmlns:inkscape="http://www.inkscape.org/namespaces/inkscape"
   version="1.1"
   id="Capa_1"
   x="0px"
   y="0px"
   width="438.533px"
   height="438.533px"
   viewBox="0 0 438.533 438.533"
   style="enable-background:new 0 0 438.533 438.533;"
   xml:space="preserve"
   sodipodi:docname="down-white.svg"
   inkscape:version="0.92.3 (2405546, 2018-03-11)"><metadata
   id="metadata993"><rdf:RDF><cc:Work
       rdf:about=""><dc:format>image/svg+xml</dc:format><dc:type
         rdf:resource="http://purl.org/dc/dcmitype/StillImage" /><dc:title></dc:title></cc:Work></rdf:RDF></metadata><defs
   id="defs991" /><sodipodi:namedview
   pagecolor="#ffffff"
   bordercolor="#666666"
   borderopacity="1"
   objecttolerance="10"
   gridtolerance="10"
   guidetolerance="10"
   inkscape:pageopacity="0"
   inkscape:pageshadow="2"
   inkscape:window-width="1920"
   inkscape:window-height="1001"
   id="namedview989"
   showgrid="false"
   inkscape:zoom="1.7239296"
   inkscape:cx="117.46419"
   inkscape:cy="172.86088"
   inkscape:window-x="0"
   inkscape:window-y="0"
   inkscape:window-maximized="1"
   inkscape:current-layer="g1617" />
<g
   id="g956">
	<path
   d="M409.133,109.203c-19.608-33.592-46.205-60.189-79.798-79.796C295.736,9.801,259.058,0,219.273,0   c-39.781,0-76.47,9.801-110.063,29.407c-33.595,19.604-60.192,46.201-79.8,79.796C9.801,142.8,0,179.489,0,219.267   c0,39.78,9.804,76.463,29.407,110.062c19.607,33.592,46.204,60.189,79.799,79.798c33.597,19.605,70.283,29.407,110.063,29.407   s76.47-9.802,110.065-29.407c33.593-19.602,60.189-46.206,79.795-79.798c19.603-33.596,29.403-70.284,29.403-110.062   C438.533,179.485,428.732,142.795,409.133,109.203z M361.449,232.399L258.1,335.755l-25.98,25.981   c-3.426,3.422-7.707,5.133-12.849,5.133c-5.136,0-9.419-1.711-12.847-5.133l-25.981-25.981L77.086,232.399   c-3.422-3.43-5.137-7.707-5.137-12.849c0-5.137,1.709-9.42,5.137-12.847l25.981-25.981c3.621-3.617,7.9-5.424,12.85-5.424   c4.952,0,9.235,1.807,12.85,5.424l53.959,53.955V91.36c0-4.949,1.809-9.233,5.426-12.847c3.616-3.618,7.898-5.428,12.847-5.428   h36.547c4.948,0,9.233,1.81,12.847,5.428c3.614,3.614,5.428,7.898,5.428,12.847v143.318l53.954-53.955   c3.429-3.427,7.703-5.14,12.847-5.14c5.141,0,9.421,1.713,12.847,5.14l25.981,25.981c3.432,3.427,5.14,7.71,5.14,12.847   C366.589,224.692,364.881,228.974,361.449,232.399z"
   id="path954"
   style="fill:#f0f0f0;fill-opacity:0;opacity:0" />
<g
   id="g1617"
   transform="translate(65.544579,81.786043)"><g
     id="g1561"
     style="fill:#f0f0f0;fill-opacity:1;opacity:1"
     transform="translate(8.1209813,-1.1601402)">
	<path
   id="path1559"
   d="m 286.935,69.377 c -3.614,-3.617 -7.898,-5.424 -12.848,-5.424 H 18.274 c -4.952,0 -9.233,1.807 -12.85,5.424 C 1.807,72.998 0,77.279 0,82.228 c 0,4.948 1.807,9.229 5.424,12.847 l 127.907,127.907 c 3.621,3.617 7.902,5.428 12.85,5.428 4.948,0 9.233,-1.811 12.847,-5.428 L 286.935,95.074 c 3.613,-3.617 5.427,-7.898 5.427,-12.847 0,-4.948 -1.814,-9.229 -5.427,-12.85 z"
   inkscape:connector-curvature="0"
   style="fill:#f0f0f0;fill-opacity:1" />
</g><g
     id="g1563">
</g><g
     id="g1565">
</g><g
     id="g1567">
</g><g
     id="g1569">
</g><g
     id="g1571">
</g><g
     id="g1573">
</g><g
     id="g1575">
</g><g
     id="g1577">
</g><g
     id="g1579">
</g><g
     id="g1581">
</g><g
     id="g1583">
</g><g
     id="g1585">
</g><g
     id="g1587">
</g><g
     id="g1589">
</g><g
     id="g1591">
</g></g></g>
<g
   id="g958">
</g>
<g
   id="g960">
</g>
<g
   id="g962">
</g>
<g
   id="g964">
</g>
<g
   id="g966">
</g>
<g
   id="g968">
</g>
<g
   id="g970">
</g>
<g
   id="g972">
</g>
<g
   id="g974">
</g>
<g
   id="g976">
</g>
<g
   id="g978">
</g>
<g
   id="g980">
</g>
<g
   id="g982">
</g>
<g
   id="g984">
</g>
<g
   id="g986">
</g>
</svg>