<svg width="170" height="104" viewBox="0 0 170 104" fill="none" xmlns="http://www.w3.org/2000/svg">
<path d="M52.0781 27.6484C55.1719 27.6484 57.9688 28.1484 60.4688 29.1484C62.9844 30.1328 65.1328 31.5078 66.9141 33.2734C68.6953 35.0391 70.0703 37.1406 71.0391 39.5781C72.0078 42.0156 72.4922 44.6797 72.4922 47.5703C72.4922 49.4297 72.3125 51.2266 71.9531 52.9609C71.5938 54.6953 71.0781 56.3281 70.4062 57.8594C69.7344 59.3906 68.9062 60.7891 67.9219 62.0547C66.9531 63.3203 65.8516 64.4141 64.6172 65.3359C63.3984 66.2422 62.0547 66.9453 60.5859 67.4453C59.1328 67.9453 57.5781 68.1953 55.9219 68.1953C54.2344 68.1953 52.5312 68.0391 50.8125 67.7266C49.0938 67.4141 47.3906 67.0781 45.7031 66.7188C45.125 67.0469 44.5312 67.3281 43.9219 67.5625C43.3125 67.8125 42.7031 68.0156 42.0938 68.1719C41.4844 68.3438 40.8828 68.4688 40.2891 68.5469C39.7109 68.6406 39.1641 68.6875 38.6484 68.6875C37.0859 68.6875 35.8984 68.5078 35.0859 68.1484C34.2578 67.7891 33.8438 67.25 33.8438 66.5312C33.8438 66.1094 33.9609 65.7344 34.1953 65.4062C34.4141 65.0781 34.7891 64.8047 35.3203 64.5859C35.8516 64.3516 36.5469 64.1797 37.4062 64.0703C38.25 63.9453 39.3047 63.8828 40.5703 63.8828C41.5547 63.8828 42.5234 63.9375 43.4766 64.0469C44.4297 64.1406 45.375 64.2578 46.3125 64.3984L46.9453 63.7422C47.2734 63.3516 47.5234 62.8594 47.6953 62.2656C47.8672 61.6562 47.9922 60.875 48.0703 59.9219C48.1484 58.9688 48.1953 57.8047 48.2109 56.4297C48.2266 55.0391 48.2344 53.3594 48.2344 51.3906C48.2344 49.4844 48.2422 47.8594 48.2578 46.5156C48.2891 45.1562 48.3516 43.9922 48.4453 43.0234C48.5391 42.0547 48.6797 41.2344 48.8672 40.5625C49.0547 39.875 49.3047 39.25 49.6172 38.6875C49.9453 38.1094 50.3516 37.5469 50.8359 37C51.3203 36.4375 51.8984 35.7969 52.5703 35.0781L53.7656 36.1328C53.4219 36.4609 53.1484 36.8672 52.9453 37.3516C52.7578 37.8203 52.6172 38.3828 52.5234 39.0391C52.4297 39.6797 52.3672 40.4141 52.3359 41.2422C52.3203 42.0547 52.3125 42.9766 52.3125 44.0078V57.2031C52.3125 58.2188 52.2031 59.1094 51.9844 59.875C51.7656 60.625 51.4688 61.2969 51.0938 61.8906C50.7344 62.4844 50.3203 63.0156 49.8516 63.4844C49.3828 63.9531 48.8984 64.3906 48.3984 64.7969C49.3203 64.9844 50.2188 65.1719 51.0938 65.3594C51.9688 65.5469 52.8125 65.7188 53.625 65.875C54.4531 66.0312 55.2422 66.1641 55.9922 66.2734C56.7578 66.3672 57.4844 66.4141 58.1719 66.4141C59.4531 66.4141 60.5938 66.1328 61.5938 65.5703C62.5938 65.0078 63.4609 64.2422 64.1953 63.2734C64.9297 62.2891 65.5469 61.1406 66.0469 59.8281C66.5625 58.5 66.9766 57.0781 67.2891 55.5625C67.6016 54.0469 67.8203 52.4609 67.9453 50.8047C68.0859 49.1484 68.1562 47.5078 68.1562 45.8828C68.1562 43.3047 67.8281 40.9922 67.1719 38.9453C66.5156 36.8984 65.5391 35.1641 64.2422 33.7422C62.9609 32.3047 61.3594 31.2109 59.4375 30.4609C57.5312 29.6953 55.3203 29.3125 52.8047 29.3125C50.9922 29.3125 49.4141 29.4609 48.0703 29.7578C46.7266 30.0391 45.5703 30.4219 44.6016 30.9062C43.6484 31.375 42.8672 31.9141 42.2578 32.5234C41.6484 33.1328 41.1641 33.7656 40.8047 34.4219C40.4609 35.0625 40.2188 35.7031 40.0781 36.3438C39.9531 36.9844 39.8906 37.5703 39.8906 38.1016C39.8906 38.7266 39.9375 39.3438 40.0312 39.9531C40.1406 40.5469 40.3438 41.0781 40.6406 41.5469C40.9531 42.0156 41.3906 42.3906 41.9531 42.6719C42.5156 42.9531 43.2656 43.0938 44.2031 43.0938C44.5156 43.0938 44.7734 43.0781 44.9766 43.0469C45.1797 43 45.3516 42.9453 45.4922 42.8828C45.6484 42.8203 45.7812 42.75 45.8906 42.6719L46.1719 44.0547C45.9375 44.2266 45.5391 44.375 44.9766 44.5C44.4297 44.625 43.8359 44.6875 43.1953 44.6875C42.2578 44.6875 41.3828 44.5234 40.5703 44.1953C39.7734 43.8672 39.0781 43.4219 38.4844 42.8594C37.8906 42.2812 37.4297 41.6172 37.1016 40.8672C36.7578 40.1172 36.5859 39.3203 36.5859 38.4766C36.5859 37.0234 36.9688 35.6484 37.7344 34.3516C38.5 33.0391 39.5703 31.8906 40.9453 30.9062C42.3203 29.9062 43.9531 29.1172 45.8438 28.5391C47.75 27.9453 49.8281 27.6484 52.0781 27.6484ZM37.6875 65.5703C37.4375 65.5703 37.1719 65.5781 36.8906 65.5938C36.6094 65.6094 36.3516 65.6484 36.1172 65.7109C35.8672 65.7734 35.6641 65.8672 35.5078 65.9922C35.3516 66.1172 35.2734 66.2969 35.2734 66.5312C35.2734 66.8438 35.5312 67.0781 36.0469 67.2344C36.5625 67.3906 37.4297 67.4688 38.6484 67.4688C39.5859 67.4688 40.4766 67.3672 41.3203 67.1641C42.1797 66.9609 42.9844 66.6641 43.7344 66.2734C42.7031 66.0859 41.6797 65.9219 40.6641 65.7812C39.6484 65.6406 38.6562 65.5703 37.6875 65.5703Z" fill="#F2F7F2"/>
<path d="M9.97266 51.3242L28.6758 40.1445L27.5859 38L4.55859 51.3242L27.5859 64.6484L28.6758 62.4688L9.97266 51.3242Z" fill="#F2F7F2"/>
<path d="M160.027 51.3242L141.324 40.1445L142.414 38L165.441 51.3242L142.414 64.6484L141.324 62.4688L160.027 51.3242Z" fill="#F2F7F2"/>
<path fill-rule="evenodd" clip-rule="evenodd" d="M129.314 24.6162C123.61 14.5415 114.777 6.60146 104.153 2L83 50.8372L90.7054 103.498C102.161 101.822 112.757 96.4562 120.888 88.2145C129.018 79.9728 134.24 69.3046 135.76 57.8277C137.281 46.3507 135.018 34.6909 129.314 24.6162ZM115.273 38.7031C114.82 39.75 114.172 40.6328 113.328 41.3516L114.055 42.3125C114.539 41.9844 115.047 41.5703 115.578 41.0703C116.109 40.5703 116.594 40 117.031 39.3594C117.484 38.7031 117.859 37.9844 118.156 37.2031C118.453 36.4062 118.602 35.5547 118.602 34.6484C118.602 33.8047 118.43 33.0234 118.086 32.3047C117.742 31.5703 117.258 30.9375 116.633 30.4062C116.023 29.8594 115.289 29.4297 114.43 29.1172C113.586 28.8047 112.656 28.6484 111.641 28.6484C110.734 28.6484 109.82 28.8125 108.898 29.1406C107.992 29.4531 107.172 29.9297 106.438 30.5703C105.719 31.2109 105.125 32.0156 104.656 32.9844C104.203 33.9375 103.977 35.0469 103.977 36.3125C103.977 37.75 104.047 39.1641 104.188 40.5547C104.344 41.9297 104.508 43.3672 104.68 44.8672C104.867 46.3516 105.031 47.9453 105.172 49.6484C105.328 51.3359 105.406 53.2109 105.406 55.2734C105.406 57.1641 105.219 58.7812 104.844 60.125C104.484 61.4531 104.016 62.5703 103.438 63.4766C102.719 63.2578 101.984 63.0781 101.234 62.9375C100.5 62.7969 99.7344 62.7266 98.9375 62.7266C98.2188 62.7266 97.5703 62.8125 96.9922 62.9844C96.4141 63.1406 95.9219 63.3594 95.5156 63.6406C95.0938 63.9062 94.7734 64.2109 94.5547 64.5547C94.3359 64.8984 94.2266 65.25 94.2266 65.6094C94.2266 65.9062 94.2891 66.2109 94.4141 66.5234C94.5234 66.8359 94.7188 67.1172 95 67.3672C95.2656 67.6172 95.625 67.8281 96.0781 68C96.5156 68.1562 97.0625 68.2344 97.7188 68.2344C98.5 68.2344 99.3516 68.0938 100.273 67.8125C101.211 67.5312 102.141 67.1016 103.063 66.5234C104 67.2109 104.992 67.9609 106.039 68.7734C107.086 69.5859 108.219 70.3438 109.438 71.0469C110.656 71.75 111.984 72.3359 113.422 72.8047C114.859 73.2891 116.43 73.5312 118.133 73.5312C118.93 73.5312 119.727 73.4375 120.523 73.25C121.32 73.0781 122.07 72.8516 122.773 72.5703C123.492 72.3047 124.133 72.0078 124.695 71.6797C125.273 71.3672 125.727 71.0703 126.055 70.7891L125.563 70.1562C124.547 70.7031 123.109 70.9766 121.25 70.9766C120.266 70.9766 119.32 70.8672 118.414 70.6484C117.508 70.4297 116.625 70.1406 115.766 69.7812C114.906 69.4375 114.055 69.0312 113.211 68.5625C112.367 68.1094 111.531 67.6406 110.703 67.1562C109.875 66.6562 109.031 66.1641 108.172 65.6797C107.328 65.1953 106.469 64.75 105.594 64.3438C106.125 63.7812 106.609 63.1562 107.047 62.4688C107.5 61.7812 107.891 61.0312 108.219 60.2188C108.547 59.4062 108.797 58.5312 108.969 57.5938C109.156 56.6406 109.25 55.6328 109.25 54.5703C109.25 52.5078 109.172 50.5391 109.016 48.6641C108.875 46.7891 108.711 45.0469 108.523 43.4375C108.336 41.8125 108.164 40.3438 108.008 39.0312C107.867 37.7031 107.797 36.5625 107.797 35.6094C107.797 34.6562 107.906 33.8203 108.125 33.1016C108.359 32.3672 108.664 31.7656 109.039 31.2969C109.414 30.8125 109.844 30.4531 110.328 30.2188C110.828 29.9688 111.352 29.8438 111.898 29.8438C112.539 29.8438 113.109 29.9844 113.609 30.2656C114.125 30.5469 114.555 30.9297 114.898 31.4141C115.258 31.8828 115.523 32.4375 115.695 33.0781C115.883 33.7188 115.977 34.3984 115.977 35.1172C115.977 36.4453 115.742 37.6406 115.273 38.7031ZM99.6406 66.7109C98.9531 66.9297 98.3125 67.0391 97.7188 67.0391C97.0625 67.0391 96.5391 66.9219 96.1484 66.6875C95.7578 66.4531 95.5625 66.0938 95.5625 65.6094C95.5625 65.125 95.7969 64.7656 96.2656 64.5312C96.7188 64.2812 97.2891 64.1562 97.9766 64.1562C98.5703 64.1562 99.1641 64.2891 99.7578 64.5547C100.367 64.8203 101 65.1562 101.656 65.5625C101 66.0938 100.328 66.4766 99.6406 66.7109Z" fill="#F2F7F2"/>
</svg>
