<svg width="45" height="45" viewBox="0 0 45 45" fill="none" xmlns="http://www.w3.org/2000/svg">
<path fill-rule="evenodd" clip-rule="evenodd" d="M45 22.5C45 34.9264 34.9264 45 22.5 45C10.0736 45 0 34.9264 0 22.5C0 10.0736 10.0736 0 22.5 0C34.9264 0 45 10.0736 45 22.5ZM26 20.5H33.6404C34.522 20.5 34.9723 19.4419 34.3609 18.8066L23.7206 7.74885C23.3272 7.34001 22.6728 7.34001 22.2794 7.74885L11.6391 18.8066C11.0277 19.4419 11.478 20.5 12.3596 20.5H20.4605V37.7639C20.4605 38.8192 21.883 39.155 22.355 38.2111L22.8972 37.1267C22.9392 37.0427 22.9692 36.9531 22.9862 36.8607L26 20.5Z" fill="#F2F7F2"/>
</svg>
