<svg width="134" height="134" viewBox="0 0 134 134" fill="none" xmlns="http://www.w3.org/2000/svg">
<path fill-rule="evenodd" clip-rule="evenodd" d="M67 134C104.003 134 134 104.003 134 67C134 29.9969 104.003 0 67 0C29.9969 0 0 29.9969 0 67C0 104.003 29.9969 134 67 134ZM22.4766 63.0044L27.5864 81H34.0122L39.0537 63.0386H39.2075C39.0708 65.7502 38.991 67.4535 38.9683 68.1484C38.9569 68.8434 38.9512 69.4757 38.9512 70.0454V81H45.1548V56.0146H36.1484L31.0386 73.7539H30.9019L25.6895 56.0146H16.7002V81H22.6816V70.1479C22.6816 68.4504 22.562 66.0692 22.3228 63.0044H22.4766ZM70.8237 78.0605C72.8859 75.873 73.917 72.6772 73.917 68.4731C73.917 64.2577 72.8916 61.0618 70.8408 58.8857C68.79 56.7096 65.7765 55.6216 61.8003 55.6216C57.8354 55.6216 54.8105 56.721 52.7256 58.9199C50.652 61.1074 49.6152 64.2804 49.6152 68.439C49.6152 72.6431 50.6577 75.8446 52.7427 78.0435C54.839 80.2423 57.8468 81.3418 61.7661 81.3418C65.7423 81.3418 68.7616 80.248 70.8237 78.0605ZM61.7661 75.7192C58.4051 75.7192 56.7246 73.3039 56.7246 68.4731C56.7246 63.5968 58.4165 61.1587 61.8003 61.1587C63.4637 61.1587 64.7113 61.7568 65.543 62.9531C66.3861 64.138 66.8076 65.978 66.8076 68.4731C66.8076 70.9569 66.3918 72.7855 65.5601 73.959C64.7397 75.1325 63.4751 75.7192 61.7661 75.7192ZM85.1792 81V71.9082H86.8882L92.186 81H99.8423L92.562 70.1138C95.3875 68.5301 96.8003 66.2913 96.8003 63.3975C96.8003 58.4756 93.4051 56.0146 86.6147 56.0146H78.4287V81H85.1792ZM86.4438 66.8325H85.1792V61.1245H86.5122C88.825 61.1245 89.9814 61.9847 89.9814 63.7051C89.9814 65.79 88.8022 66.8325 86.4438 66.8325ZM102.115 81H116.949V75.4971H108.866V70.7803H116.351V65.3628H108.866V61.4321H116.949V56.0146H102.115V81Z" fill="#F2F7F2"/>
</svg>
